<svg width="80" height="59" viewBox="0 0 80 59" fill="none" xmlns="http://www.w3.org/2000/svg">
<path d="M7.82402 0L0 13.669H15.648L7.82402 0Z" fill="#FED600"/>
<path d="M7.82402 27.36L0 13.668H15.648L7.82402 27.36Z" fill="#00A880"/>
<path d="M8.97441 31.3633L1.15039 45.0553H16.7984L8.97441 31.3633Z" fill="#107BB6"/>
<path d="M8.97441 58.7506L1.15039 45.0586H16.7984L8.97441 58.7506Z" fill="#20A5DE"/>
<path d="M16.7752 15.6953L8.95117 29.3873H24.5992L16.7752 15.6953Z" fill="#26225E"/>
<path d="M16.7986 45.0553L8.97461 31.3633H24.6226L16.7986 45.0553Z" fill="#2D3380"/>
<path d="M31.6872 18.9828C32.1704 19.2359 32.7457 19.351 33.4591 19.351C34.1724 19.351 34.5867 19.2359 35.0239 18.9828C35.4611 18.7297 35.8063 18.3845 36.0594 17.9473C36.2895 17.5101 36.4276 17.0268 36.4276 16.4975C36.4276 15.7151 36.2665 15.0478 35.9213 14.5185C35.5762 13.9893 35.162 13.506 34.6787 13.0918L33.7582 12.2634C33.4361 11.9872 33.1829 11.7111 32.9758 11.4349C32.7687 11.1818 32.6767 10.8366 32.6767 10.4224C32.6767 10.0082 32.7227 10.0312 32.8378 9.84713C32.9528 9.66304 33.0909 9.57099 33.321 9.57099C33.5511 9.57099 33.6892 9.64002 33.7812 9.75508C33.8733 9.89315 33.9423 10.0772 33.9884 10.3074C34.0114 10.5605 34.0344 10.8366 34.0574 11.1818L36.2205 10.9287C36.2205 10.6065 36.1745 10.2383 36.1054 9.87014C36.0364 9.50195 35.8983 9.15678 35.7142 8.8116C35.5301 8.48943 35.231 8.21329 34.8628 8.00619C34.4946 7.79908 34.0114 7.70703 33.39 7.70703C32.4236 7.70703 31.6412 7.96016 31.0659 8.46642C30.4906 8.97268 30.2144 9.70906 30.2144 10.6756C30.2144 11.6421 30.3525 11.9182 30.6516 12.3784C30.9508 12.8387 31.296 13.2529 31.7332 13.6211L32.6997 14.4725C33.0679 14.7947 33.39 15.1168 33.5972 15.439C33.8273 15.7612 33.9193 16.1524 33.9193 16.6126C33.9193 17.0728 33.8733 16.9808 33.8043 17.1649C33.7352 17.326 33.5741 17.418 33.321 17.418C33.0679 17.418 32.9528 17.349 32.8148 17.2339C32.6767 17.1189 32.5616 16.8887 32.4926 16.6126C32.4236 16.3134 32.3775 15.9222 32.3545 15.439L30.1914 15.7382C30.2144 16.5896 30.3525 17.2799 30.6056 17.8092C30.8357 18.3385 31.2039 18.7297 31.6872 18.9828Z" fill="#26225E"/>
<path d="M39.4419 11.8026L40.7996 19.1664V19.1894H42.4104L43.6761 11.8717L43.8832 19.1664V19.1894H45.6781L45.494 7.91364V7.89062H42.8937L41.582 14.3569L40.3624 7.91364L40.3394 7.89062H37.647L37.4629 19.1664V19.1894H39.2808L39.4419 11.8026Z" fill="#26225E"/>
<path d="M49.4989 16.8196H51.1097L51.4779 19.1898H53.8021L51.708 7.91406H48.8315L46.6914 19.1898H49.0846L49.4758 16.8196H49.4989ZM50.8796 15.3009H49.729L50.3043 11.0667L50.8796 15.3009Z" fill="#26225E"/>
<path d="M57.3442 14.1498H58.0116L59.2542 19.1894H61.8545L60.3128 13.7356C60.6809 13.5515 60.9571 13.3444 61.1642 13.0683C61.3713 12.7921 61.5094 12.493 61.5784 12.1248C61.6474 11.7566 61.6935 11.3424 61.6935 10.8822C61.6935 10.0998 61.5324 9.47844 61.2332 9.04122C60.9111 8.60399 60.4738 8.30484 59.9215 8.14375C59.3693 7.98267 58.7019 7.89062 57.9425 7.89062H54.8359V19.1894H57.3672V14.1498H57.3442ZM59.2312 11.9637C59.1622 12.1938 59.0241 12.3779 58.84 12.493C58.6559 12.608 58.3798 12.6771 58.0346 12.6771H57.3672V9.5935H58.1496C58.6099 9.5935 58.932 9.73157 59.1161 9.9847C59.3002 10.2608 59.3693 10.629 59.3693 11.0893C59.3693 11.5495 59.3232 11.7106 59.2542 11.9407L59.2312 11.9637Z" fill="#26225E"/>
<path d="M64.0662 19.1894H66.5975V9.77759H68.2773V7.89062H62.3633V9.77759H64.0662V19.1894Z" fill="#26225E"/>
<path d="M35.3239 22.9173V21.1914H30.2383V32.4672H35.3469V30.7643H32.7466V27.4276H34.7256V25.6787H32.7466V22.9173H35.3239Z" fill="#26225E"/>
<path d="M38.6143 26.7142L40.8694 32.4672H40.8925H42.5953V21.1914H40.5013V26.5301L38.2231 21.1914H36.4512V32.4672H38.6143V26.7142Z" fill="#26225E"/>
<path d="M49.3371 22.9173V21.1914H44.2285V32.4672H49.3602V30.7643H46.7598V27.4276H48.7158V25.6787H46.7598V22.9173H49.3371Z" fill="#26225E"/>
<path d="M54.8812 32.4668H57.4815L55.9397 27.013C56.3079 26.8289 56.584 26.6218 56.7911 26.3456C56.9982 26.0695 57.1363 25.7703 57.2054 25.4021C57.2744 25.034 57.3204 24.6197 57.3204 24.1595C57.3204 23.3771 57.1593 22.7558 56.8602 22.3186C56.538 21.8813 56.1008 21.5822 55.5485 21.4211C54.9962 21.26 54.3289 21.168 53.5695 21.168H50.4629V32.4668H52.9942V27.4272H53.6615L54.9042 32.4668H54.8812ZM54.8581 25.2411C54.7891 25.4712 54.651 25.6553 54.4669 25.7703C54.2828 25.8854 54.0067 25.9544 53.6615 25.9544H52.9942V22.8708H53.7766C54.2368 22.8708 54.559 23.0089 54.7431 23.262C54.9272 23.5382 54.9962 23.9064 54.9962 24.3666C54.9962 24.8268 54.9502 24.9879 54.8812 25.218L54.8581 25.2411Z" fill="#26225E"/>
<path d="M63.443 31.5941L63.581 32.4685H65.2609V26.6005H61.9702V28.0963H62.9827V29.408C62.9827 29.6611 62.9597 29.8912 62.8907 30.1213C62.8216 30.3515 62.7296 30.5125 62.6145 30.6506C62.4995 30.7887 62.2924 30.8577 62.0392 30.8577C61.7861 30.8577 61.602 30.7887 61.4869 30.6506C61.3489 30.5125 61.2568 30.3515 61.2108 30.1213C61.1648 29.9142 61.1418 29.6611 61.1418 29.431V24.2303C61.1418 24.0002 61.1418 23.7701 61.1878 23.563C61.2108 23.3559 61.3029 23.1718 61.4179 23.0337C61.533 22.8956 61.7171 22.8266 61.9932 22.8266C62.2694 22.8266 62.4304 22.8956 62.5455 23.0107C62.6606 23.1258 62.7296 23.2868 62.7526 23.4939C62.7756 23.701 62.7986 23.9082 62.7986 24.1613V25.1048H65.2609V24.3684C65.2609 23.701 65.1688 23.1258 64.9617 22.6425C64.7546 22.1593 64.4094 21.7681 63.9262 21.4689C63.443 21.1928 62.7756 21.0547 61.9472 21.0547C61.1188 21.0547 60.4054 21.2158 59.9221 21.5379C59.4159 21.8601 59.0707 22.3203 58.8636 22.8956C58.6565 23.4709 58.5645 24.1843 58.5645 24.9667V28.7406C58.5645 29.5 58.6565 30.1904 58.8406 30.7887C59.0247 31.387 59.3469 31.8472 59.8071 32.1694C60.2673 32.4916 60.8886 32.6526 61.648 32.6526C62.4074 32.6526 62.5455 32.5376 62.8216 32.3305C63.0978 32.1234 63.3049 31.8932 63.443 31.5941Z" fill="#26225E"/>
<path d="M67.976 27.8648V32.4672H70.3923V27.8648L72.4863 21.2144L72.5094 21.1914H70.2082L69.2647 24.6892L68.2062 21.1914H65.8359L67.976 27.8648Z" fill="#26225E"/>
<path d="M35.5985 34.7189C35.1383 34.4428 34.4709 34.3047 33.6425 34.3047C32.8141 34.3047 32.1007 34.4658 31.6175 34.7649C31.1112 35.0641 30.766 35.5243 30.5589 36.0766C30.3518 36.6289 30.2598 37.3192 30.2598 38.1016V42.1517C30.2598 42.9111 30.3518 43.5784 30.5589 44.1307C30.766 44.683 31.1112 45.1433 31.6175 45.4424C32.1237 45.7646 32.7911 45.9026 33.6425 45.9026C34.4939 45.9026 35.1613 45.7646 35.6215 45.4654C36.0818 45.1663 36.4269 44.7751 36.611 44.2688C36.7951 43.7625 36.8872 43.1872 36.8872 42.5429V41.5534H34.4249V42.75C34.4249 42.9801 34.4249 43.1872 34.3789 43.3944C34.3559 43.6015 34.2868 43.7856 34.1718 43.9006C34.0567 44.0387 33.8726 44.0847 33.6195 44.0847C33.3664 44.0847 33.2053 44.0157 33.0902 43.9006C32.9752 43.7856 32.8831 43.6015 32.8371 43.4174C32.7911 43.2103 32.7681 42.9801 32.7681 42.727V37.4343C32.7681 37.2042 32.7681 36.9741 32.8141 36.767C32.8371 36.5598 32.9291 36.3988 33.0442 36.2607C33.1593 36.1226 33.3433 36.0536 33.5965 36.0536C33.8496 36.0536 34.0337 36.1226 34.1488 36.2377C34.2638 36.3758 34.3329 36.5368 34.3559 36.7439C34.3559 36.951 34.4019 37.1582 34.4019 37.3883V38.5389H36.8642V37.5494C36.8642 36.905 36.7721 36.3297 36.565 35.8465C36.3809 35.3632 36.0357 34.972 35.5525 34.6959L35.5985 34.7189Z" fill="#26225E"/>
<path d="M43.4918 34.7419C42.9855 34.4428 42.3182 34.3047 41.4667 34.3047C40.6153 34.3047 39.9479 34.4428 39.4647 34.7419C38.9814 35.0411 38.6133 35.4553 38.4061 36.0076C38.199 36.5598 38.084 37.2272 38.084 38.0096V42.1977C38.084 42.9571 38.199 43.6475 38.4061 44.1998C38.6133 44.7521 38.9814 45.1893 39.4647 45.4884C39.9479 45.7876 40.6383 45.9257 41.4667 45.9257C42.2951 45.9257 43.0085 45.7646 43.4918 45.4884C43.998 45.1893 44.3432 44.7521 44.5733 44.1998C44.7804 43.6475 44.8955 42.9801 44.8955 42.1977V38.0096C44.8955 37.2272 44.7804 36.5598 44.5733 36.0076C44.3662 35.4553 43.998 35.0411 43.4918 34.7419ZM42.2491 43.4404C42.2031 43.6475 42.1341 43.8086 42.019 43.9236C41.9039 44.0387 41.7198 44.1077 41.4667 44.1077C41.2136 44.1077 41.0295 44.0387 40.9144 43.9236C40.7994 43.7856 40.7303 43.6245 40.7073 43.4404C40.6843 43.2333 40.6613 43.0262 40.6613 42.8191V37.4113C40.6613 37.1812 40.6613 36.9741 40.7073 36.79C40.7534 36.6059 40.8224 36.4218 40.9374 36.3067C41.0525 36.1917 41.2366 36.1226 41.4667 36.1226C41.6968 36.1226 41.9039 36.1917 42.019 36.3067C42.1341 36.4448 42.2031 36.6059 42.2491 36.79C42.2951 36.9971 42.2951 37.2042 42.2951 37.4113V42.8191C42.2951 43.0262 42.2951 43.2333 42.2491 43.4404Z" fill="#26225E"/>
<path d="M50.4635 42.6379C50.4635 42.8681 50.4635 43.0982 50.4175 43.3283C50.3945 43.5584 50.3025 43.7425 50.1874 43.8806C50.0723 44.0187 49.8882 44.0877 49.6121 44.0877C49.336 44.0877 49.1749 44.0187 49.0598 43.8806C48.9448 43.7425 48.8527 43.5584 48.8297 43.3283C48.7837 43.0982 48.7837 42.8681 48.7837 42.6379V34.4688H46.2754V42.2467C46.2754 43.0291 46.3674 43.6965 46.5745 44.2488C46.7586 44.8011 47.1268 45.2153 47.6101 45.4914C48.0933 45.7675 48.7837 45.9056 49.6351 45.9056C50.4865 45.9056 51.1769 45.7675 51.6602 45.4914C52.1434 45.2153 52.4886 44.778 52.6957 44.2488C52.9028 43.6965 52.9948 43.0291 52.9948 42.2467V34.4688H50.4865V42.6379H50.4635Z" fill="#26225E"/>
<path d="M58.5887 39.8075L56.3105 34.4688H54.5156V45.7675H56.6787V39.9916L58.9569 45.7445V45.7675H60.6828V34.4688H58.5887V39.8075Z" fill="#26225E"/>
<path d="M67.5165 34.7189C67.0562 34.4428 66.3889 34.3047 65.5605 34.3047C64.732 34.3047 64.0187 34.4658 63.5354 34.7649C63.0292 35.0641 62.684 35.5243 62.4769 36.0766C62.2698 36.6289 62.1777 37.3192 62.1777 38.1016V42.1517C62.1777 42.9111 62.2698 43.5784 62.4769 44.1307C62.684 44.683 63.0292 45.1433 63.5354 45.4424C64.0417 45.7646 64.709 45.9026 65.5605 45.9026C66.4119 45.9026 67.0793 45.7646 67.5395 45.4654C67.9997 45.1663 68.3449 44.7751 68.529 44.2688C68.7131 43.7625 68.8051 43.1872 68.8051 42.5429V41.5534H66.3429V42.75C66.3429 42.9801 66.3429 43.1872 66.2969 43.3944C66.2738 43.6015 66.2048 43.7856 66.0897 43.9006C65.9747 44.0387 65.7906 44.0847 65.5375 44.0847C65.2843 44.0847 65.1233 44.0157 65.0082 43.9006C64.8931 43.7856 64.8011 43.6245 64.7551 43.4174C64.709 43.2103 64.686 42.9801 64.686 42.727V37.4343C64.686 37.2042 64.686 36.9741 64.732 36.767C64.7551 36.5598 64.8471 36.3988 64.9622 36.2607C65.0772 36.1226 65.2613 36.0536 65.5144 36.0536C65.7676 36.0536 65.9517 36.1226 66.0667 36.2377C66.1818 36.3758 66.2508 36.5368 66.2738 36.7439C66.2738 36.951 66.3199 37.1582 66.3199 37.3883V38.5389H68.7821V37.5494C68.7821 36.905 68.6901 36.3297 68.483 35.8465C68.2989 35.3632 67.9537 34.972 67.4705 34.6959L67.5165 34.7189Z" fill="#26225E"/>
<path d="M72.6954 34.4688H70.1641V45.7675H72.6954V34.4688Z" fill="#26225E"/>
<path d="M76.8594 44.0417V34.4688H74.3281V45.7675H79.4367V44.0417H76.8594Z" fill="#26225E"/>
<path d="M31.9606 55.3618C31.6384 55.3618 31.3623 55.2927 31.1552 55.1777C30.9481 55.0626 30.787 54.8785 30.6719 54.6484C30.5569 54.4183 30.4879 54.0961 30.4879 53.7279L31.4083 53.5668C31.4083 53.7739 31.4313 53.958 31.4774 54.0961C31.5234 54.2342 31.5694 54.3492 31.6384 54.4183C31.7075 54.4873 31.7995 54.5333 31.9146 54.5333C32.0296 54.5333 32.1447 54.4873 32.1907 54.3953C32.2368 54.3032 32.2598 54.2112 32.2598 54.0961C32.2598 53.866 32.2137 53.6819 32.0987 53.5438C31.9836 53.4057 31.8456 53.2447 31.6845 53.1066L31.1322 52.6464C30.9481 52.4853 30.787 52.3012 30.6489 52.0941C30.5339 51.887 30.4648 51.6338 30.4648 51.3347C30.4648 50.8975 30.5799 50.5753 30.833 50.3452C31.0862 50.1151 31.4313 50 31.8686 50C32.3058 50 32.3518 50.046 32.5129 50.1381C32.674 50.2301 32.812 50.3452 32.9041 50.4832C32.9961 50.6213 33.0652 50.7824 33.0882 50.9435C33.1342 51.1046 33.1572 51.2887 33.1572 51.4497L32.2598 51.5878C32.2598 51.4267 32.2598 51.2887 32.2137 51.1736C32.1677 51.0585 32.1447 50.9665 32.0987 50.8975C32.0527 50.8284 31.9606 50.8054 31.8456 50.8054C31.7305 50.8054 31.6384 50.8514 31.5694 50.9435C31.5004 51.0355 31.4774 51.1276 31.4774 51.2426C31.4774 51.4267 31.5234 51.5878 31.5924 51.7029C31.6845 51.8179 31.7995 51.933 31.9376 52.0711L32.4669 52.5313C32.697 52.7154 32.8811 52.9455 33.0422 53.1756C33.2032 53.4057 33.2723 53.7279 33.2723 54.0731C33.2723 54.4183 33.2263 54.5333 33.1112 54.7404C32.9961 54.9475 32.8351 55.0856 32.651 55.2007C32.4439 55.3157 32.2137 55.3618 31.9376 55.3618H31.9606Z" fill="#20A5DE"/>
<path d="M34.241 55.2944V50.8762H33.4355V50.0938H36.1049V50.8762H35.3225V55.2944H34.264H34.241Z" fill="#20A5DE"/>
<path d="M36.0352 55.2901L37.0477 50.0664H38.2213L39.2338 55.2901H38.2443L38.0602 54.1395H37.2318L37.0247 55.2901H36.0352ZM37.3468 53.4952H37.9682L37.646 51.3781L37.3468 53.4952Z" fill="#20A5DE"/>
<path d="M39.627 55.2901V50.0664H40.3633L41.5139 52.7818V50.0664H42.3884V55.2901H41.675L40.5244 52.4136V55.2901H39.627Z" fill="#20A5DE"/>
<path d="M43.1011 55.2901V50.0664H44.3668C44.804 50.0664 45.1492 50.1124 45.4023 50.2275C45.6554 50.3425 45.8165 50.5266 45.9316 50.7568C46.0236 51.0099 46.0927 51.309 46.0927 51.6772V53.5872C46.0927 53.9784 46.0467 54.3006 45.9316 54.5307C45.8395 54.7838 45.6554 54.9679 45.4023 55.083C45.1492 55.198 44.827 55.2671 44.3898 55.2671H43.0781L43.1011 55.2901ZM44.1597 54.5537H44.3898C44.5969 54.5537 44.735 54.5307 44.804 54.4617C44.8961 54.3926 44.9421 54.3006 44.9651 54.1855C44.9651 54.0705 44.9881 53.9094 44.9881 53.7253V51.5622C44.9881 51.3781 44.9881 51.24 44.9421 51.125C44.9191 51.0099 44.85 50.9409 44.781 50.8948C44.689 50.8488 44.5509 50.8258 44.3668 50.8258H44.1367V54.5537H44.1597Z" fill="#20A5DE"/>
<path d="M46.3906 55.2901L47.4031 50.0664H48.5767L49.5893 55.2901H48.5998L48.4157 54.1395H47.5872L47.3801 55.2901H46.3906ZM47.6793 53.4952H48.3006L47.9784 51.3781L47.6793 53.4952Z" fill="#20A5DE"/>
<path d="M49.9824 55.2901V50.0664H51.3401C51.6853 50.0664 51.9845 50.1124 52.2376 50.1815C52.4907 50.2505 52.6748 50.4116 52.8129 50.5957C52.9509 50.8028 53.02 51.0789 53.02 51.4241C53.02 51.7693 53.02 51.8383 52.974 51.9994C52.9279 52.1605 52.8819 52.2986 52.7899 52.4366C52.6978 52.5747 52.5597 52.6667 52.3987 52.7358L53.112 55.2901H52.0305L51.4322 52.9199H51.064V55.2901H50.0054H49.9824ZM51.041 52.2986H51.3401C51.5012 52.2986 51.6393 52.2755 51.7543 52.2065C51.8464 52.1605 51.9154 52.0684 51.9614 51.9534C52.0075 51.8383 52.0305 51.7002 52.0305 51.5392C52.0305 51.309 51.9845 51.1249 51.8924 50.9869C51.8004 50.8488 51.6393 50.8028 51.4092 50.8028H51.041V52.2986Z" fill="#20A5DE"/>
<path d="M53.6168 55.2901V50.0664H54.8824C55.3196 50.0664 55.6648 50.1124 55.9179 50.2275C56.1711 50.3425 56.3322 50.5266 56.4472 50.7568C56.5393 51.0099 56.6083 51.309 56.6083 51.6772V53.5872C56.6083 53.9784 56.5623 54.3006 56.4472 54.5307C56.3552 54.7838 56.1711 54.9679 55.9179 55.083C55.6648 55.198 55.3427 55.2671 54.9054 55.2671H53.5938L53.6168 55.2901ZM54.6753 54.5537H54.9054C55.1125 54.5537 55.2506 54.5307 55.3196 54.4617C55.4117 54.3926 55.4577 54.3006 55.4807 54.1855C55.4807 54.0705 55.5037 53.9094 55.5037 53.7253V51.5622C55.5037 51.3781 55.5037 51.24 55.4577 51.125C55.4347 51.0099 55.3657 50.9409 55.2966 50.8948C55.2046 50.8488 55.0665 50.8258 54.8824 50.8258H54.6523V54.5537H54.6753Z" fill="#20A5DE"/>
<path d="M58.7027 55.2901L58.7947 50.0664H59.9223L60.5667 53.3571L61.257 50.0664H62.3386L62.4306 55.2901H61.6482L61.5562 51.7463L60.8888 55.2901H60.2215L59.5311 51.7233L59.4621 55.2901H58.6797H58.7027Z" fill="#20A5DE"/>
<path d="M63.0508 55.2901V50.0664H65.3289V50.8028H64.1093V52.1835H65.0528V52.9199H64.1093V54.5537H65.3289V55.2671H63.0508V55.2901Z" fill="#20A5DE"/>
<path d="M65.7457 55.2901L65.8377 50.0664H66.9653L67.6096 53.3571L68.3 50.0664H69.3815L69.4736 55.2901H68.6912L68.5991 51.7463L67.9318 55.2901H67.2644L66.5741 51.7233L66.5051 55.2901H65.7227H65.7457Z" fill="#20A5DE"/>
<path d="M70.0944 55.2901V50.0664H71.4061C71.6362 50.0664 71.8433 50.0664 72.0274 50.1354C72.2115 50.1815 72.3956 50.2505 72.5337 50.3425C72.6717 50.4346 72.7868 50.5727 72.8789 50.7568C72.9479 50.9409 72.9939 51.148 72.9939 51.4471C72.9939 51.7463 72.9709 51.8383 72.9019 51.9764C72.8328 52.1145 72.7638 52.2525 72.6487 52.3216C72.5337 52.4136 72.3956 52.4596 72.2345 52.5057C72.4416 52.5287 72.6027 52.5977 72.7408 52.7128C72.8789 52.8278 72.9709 52.9659 73.0399 53.127C73.109 53.2881 73.132 53.5182 73.132 53.7713C73.132 54.0244 73.109 54.2546 73.0399 54.4617C72.9709 54.6458 72.8789 54.8068 72.7408 54.9449C72.6027 55.06 72.4416 55.152 72.2575 55.2211C72.0734 55.2901 71.8433 55.3131 71.5902 55.3131H70.0254L70.0944 55.2901ZM71.153 52.1835H71.4061C71.5902 52.1835 71.7283 52.1605 71.8203 52.1145C71.9124 52.0684 71.9814 51.9764 72.0274 51.8613C72.0734 51.7463 72.0734 51.6082 72.0734 51.4471C72.0734 51.286 72.0504 51.171 72.0044 51.0559C71.9584 50.9639 71.8663 50.8948 71.7513 50.8488C71.6362 50.8028 71.4981 50.7798 71.3371 50.7798H71.153V52.1605V52.1835ZM71.153 54.5307H71.4521C71.7283 54.5307 71.9124 54.4617 72.0044 54.3236C72.0965 54.1855 72.1655 54.0014 72.1655 53.7253C72.1655 53.4491 72.1425 53.3571 72.0965 53.242C72.0504 53.127 71.9814 53.0349 71.8663 52.9659C71.7513 52.8969 71.6132 52.8738 71.4521 52.8738H71.176V54.5307H71.153Z" fill="#20A5DE"/>
<path d="M73.707 55.2901V50.0664H75.9852V50.8028H74.7656V52.1835H75.7091V52.9199H74.7656V54.5537H75.9852V55.2671H73.707V55.2901Z" fill="#20A5DE"/>
<path d="M76.4219 55.2901V50.0664H77.7796C78.1247 50.0664 78.4239 50.1124 78.677 50.1815C78.9302 50.2505 79.1143 50.4116 79.2523 50.5957C79.3904 50.8028 79.4594 51.0789 79.4594 51.4241C79.4594 51.7693 79.4594 51.8383 79.4134 51.9994C79.3674 52.1605 79.3214 52.2986 79.2293 52.4366C79.1373 52.5747 78.9992 52.6667 78.8381 52.7358L79.5515 55.2901H78.4699L77.8716 52.9199H77.5034V55.2901H76.4449H76.4219ZM77.4804 52.2986H77.7796C77.9407 52.2986 78.0787 52.2755 78.1938 52.2065C78.2858 52.1605 78.3549 52.0684 78.4009 51.9534C78.4469 51.8383 78.4699 51.7002 78.4699 51.5392C78.4699 51.309 78.4239 51.1249 78.3319 50.9869C78.2398 50.8488 78.0787 50.8028 77.8486 50.8028H77.4804V52.2986Z" fill="#20A5DE"/>
</svg>
